<svg width="133" height="39" viewBox="0 0 133 39" fill="none" xmlns="http://www.w3.org/2000/svg">
<rect width="133" height="39" fill="white"/>
<path d="M58.5835 34.5741H49V3.42586H59.0081C62.0207 3.42586 64.5985 4.04943 66.7417 5.29658C68.8848 6.53359 70.5276 8.31305 71.6699 10.635C72.8123 12.9468 73.3834 15.7148 73.3834 18.9392C73.3834 22.1838 72.8072 24.9772 71.6548 27.3194C70.5023 29.6515 68.8242 31.4461 66.6204 32.7034C64.4166 33.9506 61.7376 34.5741 58.5835 34.5741ZM52.7606 31.2281H58.3409C60.9087 31.2281 63.0366 30.7313 64.7249 29.7376C66.4131 28.744 67.6717 27.3295 68.5007 25.4943C69.3296 23.6591 69.7441 21.474 69.7441 18.9392C69.7441 16.4246 69.3347 14.2598 68.5158 12.4449C67.697 10.6198 66.4738 9.22053 64.8462 8.24715C63.2186 7.26362 61.1917 6.77186 58.7655 6.77186H52.7606V31.2281Z" fill="#263238"/>
<path d="M79.6916 34.5741V3.42586H90.1849C92.6213 3.42586 94.6128 3.86692 96.1595 4.74905C97.7163 5.62104 98.8688 6.80228 99.6168 8.29278C100.365 9.78327 100.739 11.4461 100.739 13.2814C100.739 15.1166 100.365 16.7845 99.6168 18.2852C98.8789 19.7858 97.7365 20.9823 96.1898 21.8745C94.6431 22.7567 92.6617 23.1977 90.2456 23.1977H82.7243V19.8517H90.1243C91.7923 19.8517 93.1318 19.5627 94.1427 18.9848C95.1536 18.4068 95.8865 17.6261 96.3415 16.6426C96.8065 15.6489 97.039 14.5285 97.039 13.2814C97.039 12.0342 96.8065 10.9189 96.3415 9.93536C95.8865 8.95184 95.1486 8.18124 94.1275 7.62357C93.1065 7.05577 91.7519 6.77186 90.0636 6.77186H83.4522V34.5741H79.6916Z" fill="#263238"/>
<path d="M133 19C133 22.2852 132.409 25.1242 131.226 27.5171C130.043 29.91 128.421 31.7554 126.358 33.0532C124.296 34.3511 121.941 35 119.292 35C116.643 35 114.288 34.3511 112.226 33.0532C110.163 31.7554 108.541 29.91 107.358 27.5171C106.175 25.1242 105.584 22.2852 105.584 19C105.584 15.7148 106.175 12.8758 107.358 10.4829C108.541 8.08999 110.163 6.24461 112.226 4.94677C114.288 3.64892 116.643 3 119.292 3C121.941 3 124.296 3.64892 126.358 4.94677C128.421 6.24461 130.043 8.08999 131.226 10.4829C132.409 12.8758 133 15.7148 133 19ZM129.361 19C129.361 16.3029 128.911 14.0266 128.011 12.1711C127.121 10.3156 125.913 8.91128 124.387 7.95818C122.871 7.00507 121.172 6.52852 119.292 6.52852C117.412 6.52852 115.708 7.00507 114.182 7.95818C112.665 8.91128 111.457 10.3156 110.558 12.1711C109.668 14.0266 109.223 16.3029 109.223 19C109.223 21.6971 109.668 23.9734 110.558 25.8289C111.457 27.6844 112.665 29.0887 114.182 30.0418C115.708 30.9949 117.412 31.4715 119.292 31.4715C121.172 31.4715 122.871 30.9949 124.387 30.0418C125.913 29.0887 127.121 27.6844 128.011 25.8289C128.911 23.9734 129.361 21.6971 129.361 19Z" fill="#263238"/>
<path d="M1.392 3.237L16 0L30.608 3.237C31.0028 3.32451 31.3558 3.54362 31.6089 3.85817C31.862 4.17272 31.9999 4.56392 32 4.96718V22.6714C31.9999 24.4224 31.5662 26.1463 30.7376 27.69C29.9089 29.2338 28.7109 30.5497 27.2498 31.5209L16 39L4.75022 31.5209C3.28938 30.5498 2.09149 29.2342 1.26284 27.6908C0.434197 26.1474 0.000420189 24.4239 0 22.6732V4.96718C6.94005e-05 4.56392 0.138023 4.17272 0.391093 3.85817C0.644162 3.54362 0.997221 3.32451 1.392 3.237ZM3.55556 6.38891V22.6714C3.55558 23.8387 3.84458 24.9879 4.39691 26.0171C4.94924 27.0462 5.74782 27.9235 6.72178 28.571L16 34.7401L25.2782 28.571C26.2519 27.9237 27.0504 27.0467 27.6027 26.0178C28.155 24.989 28.4441 23.8402 28.4444 22.6732V6.38891L16 3.63409L3.55556 6.38891ZM16 17.7273C14.8213 17.7273 13.6908 17.2603 12.8573 16.4292C12.0238 15.5981 11.5556 14.4708 11.5556 13.2955C11.5556 12.1201 12.0238 10.9928 12.8573 10.1617C13.6908 9.33056 14.8213 8.86364 16 8.86364C17.1787 8.86364 18.3092 9.33056 19.1427 10.1617C19.9762 10.9928 20.4444 12.1201 20.4444 13.2955C20.4444 14.4708 19.9762 15.5981 19.1427 16.4292C18.3092 17.2603 17.1787 17.7273 16 17.7273ZM8.048 26.5909C8.2635 24.6381 9.1941 22.8332 10.6615 21.5222C12.1288 20.2112 14.0298 19.4862 16 19.4862C17.9702 19.4862 19.8712 20.2112 21.3385 21.5222C22.8059 22.8332 23.7365 24.6381 23.952 26.5909H8.048Z" fill="#263238"/>
</svg>
