<svg width="160" height="38" viewBox="0 0 160 38" fill="none" xmlns="http://www.w3.org/2000/svg">
<path d="M0 0.514048H5.39944V23.7648H17.5182V28.8262H0V0.514048Z" fill="#263238"/>
<path d="M30.0041 8.8179C31.5239 8.8179 32.9104 9.08151 34.1636 9.60874C35.4435 10.1096 36.5367 10.8214 37.4433 11.744C38.3765 12.6403 39.0965 13.7211 39.6031 14.9865C40.1364 16.2518 40.403 17.6358 40.403 19.1384C40.403 20.641 40.1364 22.025 39.6031 23.2903C39.0965 24.5557 38.3765 25.6497 37.4433 26.5723C36.5367 27.4686 35.4435 28.1804 34.1636 28.7076C32.9104 29.2085 31.5239 29.4589 30.0041 29.4589C28.4842 29.4589 27.0844 29.2085 25.8045 28.7076C24.5513 28.1804 23.4581 27.4686 22.5249 26.5723C21.6183 25.6497 20.8984 24.5557 20.3651 23.2903C19.8585 22.025 19.6052 20.641 19.6052 19.1384C19.6052 17.6358 19.8585 16.2518 20.3651 14.9865C20.8984 13.7211 21.6183 12.6403 22.5249 11.744C23.4581 10.8214 24.5513 10.1096 25.8045 9.60874C27.0844 9.08151 28.4842 8.8179 30.0041 8.8179ZM30.0041 24.6743C30.6707 24.6743 31.3106 24.5557 31.9239 24.3184C32.5638 24.0548 33.1238 23.6857 33.6037 23.2112C34.0837 22.7367 34.457 22.1568 34.7236 21.4714C35.0169 20.786 35.1635 20.0083 35.1635 19.1384C35.1635 18.2685 35.0169 17.4908 34.7236 16.8054C34.457 16.12 34.0837 15.5401 33.6037 15.0656C33.1238 14.5911 32.5638 14.2352 31.9239 13.9979C31.3106 13.7343 30.6707 13.6025 30.0041 13.6025C29.3108 13.6025 28.6576 13.7343 28.0443 13.9979C27.431 14.2352 26.8844 14.5911 26.4045 15.0656C25.9245 15.5401 25.5379 16.12 25.2446 16.8054C24.9779 17.4908 24.8446 18.2685 24.8446 19.1384C24.8446 20.0083 24.9779 20.786 25.2446 21.4714C25.5379 22.1568 25.9245 22.7367 26.4045 23.2112C26.8844 23.6857 27.431 24.0548 28.0443 24.3184C28.6576 24.5557 29.3108 24.6743 30.0041 24.6743Z" fill="#263238"/>
<path d="M52.8086 38C51.4221 38 50.1822 37.8155 49.089 37.4464C48.0224 37.1037 47.0892 36.6424 46.2893 36.0624C45.4894 35.5088 44.8228 34.8894 44.2895 34.204C43.7562 33.5186 43.3696 32.8332 43.1296 32.1478L48.1291 30.1707C48.5024 31.1987 49.1156 31.9896 49.9689 32.5432C50.8221 33.1231 51.7687 33.4131 52.8086 33.4131C54.4618 33.4131 55.7683 32.8991 56.7282 31.871C57.6881 30.8692 58.168 29.4589 58.168 27.64V26.2955H57.8481C57.2348 27.1391 56.4216 27.8113 55.4083 28.3122C54.4218 28.7867 53.2485 29.0239 51.8887 29.0239C50.7155 29.0239 49.5689 28.7867 48.449 28.3122C47.3558 27.8377 46.3826 27.1655 45.5293 26.2955C44.6761 25.3992 43.9828 24.3316 43.4496 23.0926C42.9163 21.8536 42.6496 20.4696 42.6496 18.9407C42.6496 17.4117 42.9163 16.0277 43.4496 14.7888C43.9828 13.5234 44.6761 12.4558 45.5293 11.5858C46.3826 10.6896 47.3558 10.0042 48.449 9.52966C49.5689 9.05515 50.7155 8.8179 51.8887 8.8179C53.2485 8.8179 54.4218 9.06833 55.4083 9.5692C56.4216 10.0437 57.2348 10.7027 57.8481 11.5463H58.168V9.45057H63.1675V27.4422C63.1675 29.0767 62.9142 30.5397 62.4076 31.8314C61.901 33.1495 61.1944 34.2567 60.2878 35.153C59.3812 36.0756 58.288 36.7742 57.0082 37.2487C55.755 37.7496 54.3551 38 52.8086 38ZM53.0086 24.358C53.6485 24.358 54.2751 24.2393 54.8884 24.0021C55.5283 23.7648 56.0883 23.4221 56.5682 22.974C57.0482 22.4995 57.4348 21.9327 57.7281 21.2737C58.0214 20.5883 58.168 19.8106 58.168 18.9407C58.168 18.0708 58.0214 17.2931 57.7281 16.6077C57.4348 15.9223 57.0482 15.3555 56.5682 14.9074C56.0883 14.4329 55.5283 14.077 54.8884 13.8398C54.2751 13.6025 53.6485 13.4839 53.0086 13.4839C52.3686 13.4839 51.742 13.6025 51.1288 13.8398C50.5155 14.077 49.9689 14.4329 49.4889 14.9074C49.009 15.3819 48.6224 15.9618 48.3291 16.6472C48.0358 17.3063 47.8891 18.0708 47.8891 18.9407C47.8891 19.8106 48.0358 20.5883 48.3291 21.2737C48.6224 21.9327 49.009 22.4995 49.4889 22.974C49.9689 23.4221 50.5155 23.7648 51.1288 24.0021C51.742 24.2393 52.3686 24.358 53.0086 24.358Z" fill="#263238"/>
<path d="M76.718 8.8179C78.2378 8.8179 79.6244 9.08151 80.8776 9.60874C82.1574 10.1096 83.2507 10.8214 84.1572 11.744C85.0905 12.6403 85.8104 13.7211 86.317 14.9865C86.8503 16.2518 87.1169 17.6358 87.1169 19.1384C87.1169 20.641 86.8503 22.025 86.317 23.2903C85.8104 24.5557 85.0905 25.6497 84.1572 26.5723C83.2507 27.4686 82.1574 28.1804 80.8776 28.7076C79.6244 29.2085 78.2378 29.4589 76.718 29.4589C75.1982 29.4589 73.7983 29.2085 72.5184 28.7076C71.2652 28.1804 70.172 27.4686 69.2388 26.5723C68.3322 25.6497 67.6123 24.5557 67.079 23.2903C66.5724 22.025 66.3191 20.641 66.3191 19.1384C66.3191 17.6358 66.5724 16.2518 67.079 14.9865C67.6123 13.7211 68.3322 12.6403 69.2388 11.744C70.172 10.8214 71.2652 10.1096 72.5184 9.60874C73.7983 9.08151 75.1982 8.8179 76.718 8.8179ZM76.718 24.6743C77.3846 24.6743 78.0245 24.5557 78.6378 24.3184C79.2777 24.0548 79.8377 23.6857 80.3176 23.2112C80.7976 22.7367 81.1709 22.1568 81.4375 21.4714C81.7308 20.786 81.8775 20.0083 81.8775 19.1384C81.8775 18.2685 81.7308 17.4908 81.4375 16.8054C81.1709 16.12 80.7976 15.5401 80.3176 15.0656C79.8377 14.5911 79.2777 14.2352 78.6378 13.9979C78.0245 13.7343 77.3846 13.6025 76.718 13.6025C76.0247 13.6025 75.3715 13.7343 74.7582 13.9979C74.1449 14.2352 73.5983 14.5911 73.1184 15.0656C72.6384 15.5401 72.2518 16.12 71.9585 16.8054C71.6918 17.4908 71.5585 18.2685 71.5585 19.1384C71.5585 20.0083 71.6918 20.786 71.9585 21.4714C72.2518 22.1568 72.6384 22.7367 73.1184 23.2112C73.5983 23.6857 74.1449 24.0548 74.7582 24.3184C75.3715 24.5557 76.0247 24.6743 76.718 24.6743Z" fill="#263238"/>
<path d="M92.0573 13.8793H88.6177V9.45057H92.0573V3.51925H97.2968V9.45057H102.096V13.8793H97.2968V21.3923C97.2968 21.8404 97.3368 22.2622 97.4168 22.6576C97.5234 23.0267 97.7101 23.343 97.9767 23.6067C98.35 24.0284 98.8833 24.2393 99.5766 24.2393C100.03 24.2393 100.39 24.1998 100.656 24.1207C100.923 24.0153 101.176 23.8835 101.416 23.7253L102.896 28.2726C102.283 28.5626 101.616 28.7735 100.896 28.9053C100.203 29.0635 99.4299 29.1426 98.5767 29.1426C97.5901 29.1426 96.6969 28.9976 95.8969 28.7076C95.1237 28.3913 94.4704 27.9695 93.9371 27.4422C92.6839 26.256 92.0573 24.5689 92.0573 22.3809V13.8793Z" fill="#263238"/>
<path d="M109.066 6.64308C108.612 6.64308 108.172 6.56399 107.746 6.40583C107.346 6.2213 106.986 5.98404 106.666 5.69407C106.373 5.37773 106.133 5.02185 105.946 4.62643C105.786 4.23101 105.706 3.79605 105.706 3.32154C105.706 2.84703 105.786 2.41207 105.946 2.01665C106.133 1.62123 106.373 1.27853 106.666 0.988553C106.986 0.672216 107.346 0.434963 107.746 0.276794C108.172 0.0922646 108.612 0 109.066 0C109.999 0 110.799 0.329518 111.465 0.988553C112.132 1.62123 112.465 2.39889 112.465 3.32154C112.465 4.24419 112.132 5.03503 111.465 5.69407C110.799 6.32674 109.999 6.64308 109.066 6.64308ZM106.466 28.8262V9.45057H111.705V28.8262H106.466Z" fill="#263238"/>
<path d="M116.336 9.45057H121.256V11.7836H121.576C122.056 10.9664 122.802 10.2678 123.816 9.68782C124.829 9.10787 126.082 8.8179 127.575 8.8179C128.828 8.8179 130.015 9.08151 131.135 9.60874C132.281 10.1096 133.281 10.8214 134.135 11.744C135.014 12.6403 135.708 13.7211 136.214 14.9865C136.721 16.2518 136.974 17.6358 136.974 19.1384C136.974 20.641 136.721 22.025 136.214 23.2903C135.708 24.5557 135.014 25.6497 134.135 26.5723C133.281 27.4686 132.281 28.1804 131.135 28.7076C130.015 29.2085 128.828 29.4589 127.575 29.4589C126.082 29.4589 124.829 29.1689 123.816 28.589C122.802 28.009 122.056 27.3104 121.576 26.4932H121.256L121.576 29.2612V37.3673H116.336V9.45057ZM126.495 24.6743C127.189 24.6743 127.842 24.5425 128.455 24.2789C129.095 24.0153 129.655 23.6462 130.135 23.1717C130.615 22.6972 131.002 22.1172 131.295 21.4318C131.588 20.7464 131.735 19.982 131.735 19.1384C131.735 18.2948 131.588 17.5303 131.295 16.845C131.002 16.1596 130.615 15.5796 130.135 15.1051C129.655 14.6306 129.095 14.2615 128.455 13.9979C127.842 13.7343 127.189 13.6025 126.495 13.6025C125.802 13.6025 125.135 13.7343 124.496 13.9979C123.882 14.2352 123.336 14.5911 122.856 15.0656C122.376 15.5401 121.989 16.12 121.696 16.8054C121.403 17.4908 121.256 18.2685 121.256 19.1384C121.256 20.0083 121.403 20.786 121.696 21.4714C121.989 22.1568 122.376 22.7367 122.856 23.2112C123.336 23.6857 123.882 24.0548 124.496 24.3184C125.135 24.5557 125.802 24.6743 126.495 24.6743Z" fill="#263238"/>
<path d="M149.601 8.8179C151.121 8.8179 152.507 9.08151 153.761 9.60874C155.041 10.1096 156.134 10.8214 157.04 11.744C157.974 12.6403 158.693 13.7211 159.2 14.9865C159.733 16.2518 160 17.6358 160 19.1384C160 20.641 159.733 22.025 159.2 23.2903C158.693 24.5557 157.974 25.6497 157.04 26.5723C156.134 27.4686 155.041 28.1804 153.761 28.7076C152.507 29.2085 151.121 29.4589 149.601 29.4589C148.081 29.4589 146.681 29.2085 145.402 28.7076C144.148 28.1804 143.055 27.4686 142.122 26.5723C141.215 25.6497 140.495 24.5557 139.962 23.2903C139.455 22.025 139.202 20.641 139.202 19.1384C139.202 17.6358 139.455 16.2518 139.962 14.9865C140.495 13.7211 141.215 12.6403 142.122 11.744C143.055 10.8214 144.148 10.1096 145.402 9.60874C146.681 9.08151 148.081 8.8179 149.601 8.8179ZM149.601 24.6743C150.268 24.6743 150.908 24.5557 151.521 24.3184C152.161 24.0548 152.721 23.6857 153.201 23.2112C153.681 22.7367 154.054 22.1568 154.321 21.4714C154.614 20.786 154.761 20.0083 154.761 19.1384C154.761 18.2685 154.614 17.4908 154.321 16.8054C154.054 16.12 153.681 15.5401 153.201 15.0656C152.721 14.5911 152.161 14.2352 151.521 13.9979C150.908 13.7343 150.268 13.6025 149.601 13.6025C148.908 13.6025 148.255 13.7343 147.641 13.9979C147.028 14.2352 146.481 14.5911 146.001 15.0656C145.521 15.5401 145.135 16.12 144.842 16.8054C144.575 17.4908 144.442 18.2685 144.442 19.1384C144.442 20.0083 144.575 20.786 144.842 21.4714C145.135 22.1568 145.521 22.7367 146.001 23.2112C146.481 23.6857 147.028 24.0548 147.641 24.3184C148.255 24.5557 148.908 24.6743 149.601 24.6743Z" fill="#263238"/>
</svg>
